# xmcd
#
# Track frame offsets:
#	150
#	19597
#	48055
#	76317
#	95830
#	124100
#	152366
#	181146
#	200190
#	225091
#	244140
#	272138
#	287809
#
# Disc length: 4209 seconds
# Revision: 1
# Processed by: cddbd v1.5.2PL0 Copyright (c) Steve Scherf et al.
# Submitted via: dBpowerAMP V12.0
#
DISCID=a3106f0d
DTITLE=Death - The Sound of Perseverance
DYEAR=1998
DGENRE=Metal
TTITLE0=Bite the Pain - 1996 Demos
TTITLE1=Story to Tell - 1996 Demos
TTITLE2=A Moment of Clarity - 1996 Demos
TTITLE3=Bite the Pain w/ Paul Payne on Vocals - 1996 Demos
TTITLE4=A Moment of Clarity w/ Paul Payne on Vocals - 1996 Demos
TTITLE5=A Moment of Clarity w/ Chuck Schuldiner on Vocals - 1996 Demos
TTITLE6=Story to Tell w/ Chuck Schuldiner on Vocals - 1996 Demos
TTITLE7=Bite the Pain w/ Shannon Hamm on Vocals - 1996 Demos
TTITLE8=A Moment of Clarity - 1996 Demos (Instrumental)
TTITLE9=Bite the Pain - 1996 Demos (Instrumental)
TTITLE10=Story to Tell - 1996 Demos (Instrumental)
TTITLE11=Voice of the Soul - 1996 Demos (Instrumental)
TTITLE12=A Moment of Clarity - 1996 Demos (Instrumental)
EXTD=
EXTT0=
EXTT1=
EXTT2=
EXTT3=
EXTT4=
EXTT5=
EXTT6=
EXTT7=
EXTT8=
EXTT9=
EXTT10=
EXTT11=
EXTT12=
PLAYORDER=
